<?xml version="1.0" encoding="UTF-8" standalone="no"?>
<!DOCTYPE svg PUBLIC "-//W3C//DTD SVG 1.1//EN" "http://www.w3.org/Graphics/SVG/1.1/DTD/svg11.dtd">
<svg width="100%" height="100%" viewBox="0 0 118 118" version="1.1" xmlns="http://www.w3.org/2000/svg" xmlns:xlink="http://www.w3.org/1999/xlink" xml:space="preserve" xmlns:serif="http://www.serif.com/" style="fill-rule:evenodd;clip-rule:evenodd;stroke-linecap:round;stroke-linejoin:round;stroke-miterlimit:1.5;">
    <g id="CSS" transform="matrix(1.07527,0,0,1.07527,-432.398,-209.28)">
        <g transform="matrix(1,0,0,1,114,0)">
            <path d="M369,220L317,220L318,230L341.732,230L319.357,241L320,251L355,251L354,264L343,268L331,264L331,258L321,258L322,272L343,279L365,272L367,241L342,241L368,230L369,220Z" style="fill:none;stroke:rgb(2,114,185);stroke-width:3.72px;"/>
        </g>
        <g transform="matrix(1,0,0,1,114,0)">
            <path d="M302,203L384,203L377,286L343,296L309,286L302,203Z" style="fill:none;stroke:rgb(0,117,193);stroke-width:3.72px;"/>
        </g>
    </g>
</svg>
