<?xml version="1.0" encoding="UTF-8" standalone="no"?>
<!DOCTYPE svg PUBLIC "-//W3C//DTD SVG 1.1//EN" "http://www.w3.org/Graphics/SVG/1.1/DTD/svg11.dtd">
<svg width="100%" height="100%" viewBox="0 0 118 118" version="1.1" xmlns="http://www.w3.org/2000/svg" xmlns:xlink="http://www.w3.org/1999/xlink" xml:space="preserve" xmlns:serif="http://www.serif.com/" style="fill-rule:evenodd;clip-rule:evenodd;stroke-linecap:round;stroke-linejoin:round;stroke-miterlimit:1.5;">
    <g id="JavaScript" transform="matrix(0.25,0,0,0.25,-43.875,-9.375)">
        <g transform="matrix(5.06329,0,0,5.6338,-1135.34,-934.951)">
            <rect x="266" y="179" width="79" height="71" style="fill:none;stroke:rgb(241,221,63);stroke-width:2.99px;"/>
        </g>
        <path d="M392,257L392,385C392.773,385.325 391.706,401.507 387,405C382.732,408.168 375.833,409.333 371,409C366.239,408.672 361.666,406.055 358,403C354,399.667 347,389 347,389L317,408C317,408 324.381,421.183 330,426C335.833,431 344.667,435.5 352,438C359.005,440.388 366.605,441.302 374,441C382.167,440.667 393.833,438.667 401,436C407.066,433.743 412.807,429.93 417,425C421.9,419.24 426.426,406.266 428,399C429.061,394.103 429,384 429,384L429,257L392,257Z" style="fill:none;stroke:rgb(241,221,63);stroke-width:16px;"/>
        <path d="M540,304C540,304 535.333,293.833 531,291C526.667,288.167 519.724,286.078 514,287C506.344,288.234 497.926,296.079 498,302C498.079,308.286 502.263,317.113 511,321C522.577,326.15 548.833,336.667 560,346C569.168,353.663 575.5,365.5 578,377C580.5,388.5 581,404.667 575,415C569,425.333 554.5,434.833 542,439C529.5,443.167 513.333,443.167 500,440C486.667,436.833 470.333,426.167 462,420C456.424,415.874 450,403 450,403L480,386C480,386 488.164,397.434 494,401C500,404.667 508.5,408.333 516,408C523.5,407.667 535.167,404 539,399C542.833,394 543.821,383.075 539,378C532.667,371.333 512.833,366.667 501,359C489.167,351.333 474.5,343 468,332C461.5,321 458.667,305 462,293C465.333,281 477,266.5 488,260C499,253.5 516.333,252.5 528,254C539.089,255.426 551.167,264 558,269C563.004,272.661 569,284 569,284L540,304Z" style="fill:none;stroke:rgb(241,221,63);stroke-width:16px;"/>
    </g>
</svg>
