<?xml version="1.0" encoding="UTF-8" standalone="no"?>
<!DOCTYPE svg PUBLIC "-//W3C//DTD SVG 1.1//EN" "http://www.w3.org/Graphics/SVG/1.1/DTD/svg11.dtd">
<svg width="100%" height="100%" viewBox="0 0 210 210" version="1.1" xmlns="http://www.w3.org/2000/svg" xmlns:xlink="http://www.w3.org/1999/xlink" xml:space="preserve" xmlns:serif="http://www.serif.com/" style="fill-rule:evenodd;clip-rule:evenodd;stroke-linecap:round;stroke-linejoin:round;stroke-miterlimit:1.5;">
    <g transform="matrix(0.44148,0,0,0.44148,-53.0407,-36.0481)">
        <path d="M339,540C339,540 347.521,530.376 351,525C354.667,519.333 357.929,512.465 361,506C364.167,499.333 368.364,492.438 370,485C371.833,476.667 372.833,465.333 372,456C371.173,446.739 367.333,436.833 365,429C362.984,422.231 360.333,414.333 358,409C356.144,404.757 351.167,400.833 351,397C350.833,393.167 355.833,389.833 357,386C358.167,382.167 358.498,377.983 358,374C357.5,370 353.5,365.667 354,362C354.5,358.333 359.024,355.557 361,352C363.5,347.5 367.5,340.167 369,335C370.304,330.507 370,325 370,321C370,317.65 368,313.167 369,311C370,308.833 374.865,310.271 376,308C377.333,305.333 375.833,297.167 377,295C377.948,293.239 381.333,296 383,295C384.667,294 385.667,289.167 387,289C388.333,288.833 389.333,294.667 391,294C392.667,293.333 394.932,287.954 397,285C399.333,281.667 403.667,274.667 405,274C406.333,273.333 405,278.667 405,281C405,283.667 405.331,287.018 405,290C404.667,293 403.167,296.667 403,299C402.879,300.695 403.057,302.586 404,304C405,305.5 407.333,308.833 409,308C410.667,307.167 412.725,302.186 414,299C415.333,295.667 416.4,291.753 417,288C417.667,283.833 416.833,278.333 418,274C419.163,269.682 421.5,264.333 424,262C426.247,259.903 430.333,261.333 433,260C435.667,258.667 439.833,256 440,254C440.167,252 434.492,250.785 434,248C433.5,245.167 435.333,240.167 437,237C438.65,233.864 441.167,230.5 444,229C446.833,227.5 450.733,227.258 454,228C457.667,228.833 462,232.667 466,234C469.847,235.282 474.667,234.5 478,236C481.231,237.454 483.127,240.925 486,243C489,245.167 492.741,246.881 496,249C499.333,251.167 502.55,253.844 506,256C510,258.5 516.167,261 520,264C523.532,266.764 526.5,270.667 529,274C531.332,277.11 535.333,282.667 535,284C534.667,285.333 528.5,281.333 527,282C525.5,282.667 525.508,286.033 526,288C526.667,290.667 529.673,294.517 531,298C532.333,301.5 533.547,305.226 534,309C534.5,313.167 534.332,318.345 534,323C533.667,327.667 533.833,333.167 532,337C530.169,340.827 525,342.667 523,346C521.045,349.259 521.886,353.7 520,357C518,360.5 514.167,364 511,367C507.901,369.936 502.667,371.5 501,375C499.333,378.5 499.833,384.5 501,388C502.121,391.362 505.167,394.833 508,396C510.833,397.167 515.168,396.789 518,395C521.167,393 524.18,387.807 527,384C530.333,379.5 533.833,371.5 538,368C541.794,364.813 547.833,363.333 552,363C555.788,362.697 560,363.667 563,366C566,368.333 568.44,372.944 570,377C571.667,381.333 572,387.5 573,392C573.894,396.025 575.437,399.916 576,404C576.667,408.833 576.174,415.384 577,421C577.833,426.667 580,433.667 581,438C581.691,440.994 583.153,443.931 583,447C582.833,450.333 580.557,454.24 580,458C579.333,462.5 580.5,470.333 579,474C577.738,477.085 573.667,479.5 571,480C568.333,480.5 565,476 563,477C561,478 560.689,483.185 559,486C557,489.333 553.667,494.167 551,497C548.715,499.427 544,500.167 543,503C542,505.833 545.981,510.405 545,514C544,517.667 539.515,521.228 537,525C534.333,529 530.833,534.833 529,538C527.88,539.935 526,544 526,544L450,546L448,541L339,540Z" style="fill:none;stroke:rgb(0,130,15);stroke-width:9.06px;"/>
        <path d="M133,166C133.833,164.167 144,161 149,158C153.918,155.049 158.333,149.833 163,148C167.355,146.289 172.594,148.574 177,147C184,144.5 198.667,135.667 205,133C208.133,131.681 212.126,132.815 215,131C218.167,129 220.625,123.953 224,121C228,117.5 234.167,113.833 239,110C243.816,106.181 247.503,100.749 253,98C258.667,95.167 267.667,93.333 273,93C277.115,92.743 283.5,94.833 285,96C286.316,97.023 283.532,99.343 282,100C279.667,101 274.169,100.038 271,102C267.5,104.167 264.333,109.5 261,113C257.749,116.414 253.683,119.124 251,123C248,127.333 244.333,134.833 243,139C242.086,141.857 240.333,148.667 243,148C245.667,147.333 254.333,136.667 259,135C262.883,133.613 267.088,136.696 271,138C275,139.333 279.833,141 283,143C285.79,144.762 287.667,147.667 290,150C292.5,152.5 295.667,155.5 298,158C300.097,160.247 303,163 304,165C304.745,166.491 302.571,169.143 304,170C305.667,171 310.663,171.29 314,171C317.833,170.667 323.833,167.333 327,168C330.007,168.633 330.5,174 333,175C335.5,176 339.167,174.833 342,174C344.833,173.167 347.406,171.47 350,170C355,167.167 364.667,159.5 372,157C378.97,154.624 387,155.333 394,155C400.659,154.683 407.667,156 414,155C420.247,154.014 427.667,150.167 432,149C434.595,148.301 439,147.667 440,148C441,148.333 438.667,150 438,151C437.333,152 436.198,152.815 436,154C435.667,156 436.167,160.5 436,163C435.865,165.023 434.5,167.5 435,169C435.5,170.5 437.483,171.31 439,172C440.833,172.833 443.573,174 446,174C448.833,174 453.167,171.5 456,172C458.824,172.498 460.137,177.159 463,177C466,176.833 471.333,171.167 474,171C476.352,170.853 477.765,173.993 479,176C480.333,178.167 481.333,181.667 482,184C482.557,185.95 482.359,188.076 483,190C483.667,192 484.333,194.667 486,196C487.667,197.333 492,196.667 493,198C494,199.333 491.333,202.667 492,204C492.667,205.333 495.205,206 497,206C499.167,206 502.31,204.566 505,204C508.167,203.333 513,201 516,202C519,203 522,207.833 523,210C523.712,211.543 523.612,214.463 522,215C519.5,215.833 512.333,215.333 508,215C503.957,214.689 500,213.5 496,213C492.017,212.502 487.5,211.833 484,212C480.93,212.146 477.833,214 475,214C472.251,214 469.487,213.17 467,212C464.167,210.667 460.167,205.833 458,206C455.833,206.167 454.667,210.5 454,213C453.333,215.5 455.167,220.5 454,221C452.833,221.5 449.225,217.808 447,216C444.333,213.833 441.333,210 438,208C434.667,206 430.667,205 427,204C423.405,203.019 419.333,202.167 416,202C412.985,201.849 409.5,201.333 407,203C404.5,204.667 403.333,210.667 401,212C398.667,213.333 395.667,210.667 393,211C390.333,211.333 387.844,213.858 385,214C381.667,214.167 376.333,211.667 373,212C370.033,212.297 366.833,214 365,216C363.167,218 363.833,221.833 362,224C360.167,226.167 356.498,227.09 354,229C351.167,231.167 347.167,236 345,237C343.646,237.625 341.833,236.167 341,235C340.167,233.833 341,230.667 340,230C339,229.333 336.578,230.369 335,231C333.333,231.667 331.667,234 330,234C328.333,234 326.833,231.167 325,231C323.167,230.833 320.276,231.322 319,233C315.833,237.167 309,250.5 306,256C304.215,259.272 303.211,263 301,266C298.667,269.167 294,272.667 292,275C290.735,276.476 290.167,280.333 289,280C287.833,279.667 285.167,275.5 285,273C284.833,270.5 287.833,267.667 288,265C288.167,262.333 287.667,257.667 286,257C284.333,256.333 278.833,262.333 278,261C277.167,259.667 280.417,253.082 281,249C281.667,244.333 284.167,237.167 282,233C279.833,228.833 271.167,225.333 268,224C266.434,223.34 263.833,226.167 263,225C262.167,223.833 264,219 263,217C262,215 259.24,213.871 257,213C254,211.833 248.167,211.167 245,210C242.478,209.071 239.833,206.333 238,206C236.533,205.733 235.491,208 234,208C231.833,208 227.888,207.05 225,206C221.333,204.667 216.528,201.509 212,200C203,197 181.167,190.833 171,188C164.38,186.155 154.833,185 151,183C148.749,181.826 149.135,178.271 148,176C146.833,173.667 146.236,170.491 144,169C141.5,167.333 132.167,167.833 133,166Z" style="fill:none;stroke:rgb(0,130,15);stroke-width:9.06px;"/>
    </g>
</svg>
