<?xml version="1.0" encoding="UTF-8" standalone="no"?>
<!DOCTYPE svg PUBLIC "-//W3C//DTD SVG 1.1//EN" "http://www.w3.org/Graphics/SVG/1.1/DTD/svg11.dtd">
<svg width="100%" height="100%" viewBox="0 0 118 118" version="1.1" xmlns="http://www.w3.org/2000/svg" xmlns:xlink="http://www.w3.org/1999/xlink" xml:space="preserve" xmlns:serif="http://www.serif.com/" style="fill-rule:evenodd;clip-rule:evenodd;stroke-linecap:round;stroke-linejoin:round;stroke-miterlimit:1.5;">
    <g id="PostgreSQL" transform="matrix(0.883148,0,0,0.883148,-308.646,-341.578)">
        <path d="M406,432C406.667,432.333 407.333,432.667 408,433" style="fill:none;stroke:rgb(0,126,207);stroke-width:4.53px;"/>
        <path d="M443,431L444,431" style="fill:none;stroke:rgb(0,126,207);stroke-width:4.53px;"/>
        <path d="M449,426L448,426C446.833,426 443.667,425.333 442,426C440.333,426.667 438.596,428.211 438,430C437.333,432 437.537,435.374 438,438C438.5,440.833 439.773,444.086 441,447C442.333,450.167 444.667,454.167 446,457C447.081,459.297 447.333,462.167 449,464C450.667,465.833 453.667,467.5 456,468C458.305,468.494 461,467 463,467C464.7,467 468.167,467 468,468C467.833,469 464.297,471.775 462,473C459.5,474.333 455.667,475.667 453,476C450.661,476.292 447.554,475.431 446,475" style="fill:none;stroke:rgb(0,126,207);stroke-width:4.53px;"/>
        <path d="M395,431C395.578,430.211 396.735,428.632 398,428C399.667,427.167 402.833,426 405,426C407.108,426 409.665,426.368 411,428C412.5,429.833 413.507,433.876 414,437C414.5,440.167 414.167,444.167 414,447C413.862,449.353 413.648,451.734 413,454C412.333,456.333 410.667,458.667 410,461C409.352,463.266 409.988,465.86 409,468C408,470.167 405.833,472.833 404,474C402.289,475.089 399.333,474.333 398,475C396.925,475.537 395.333,477.167 396,478C396.667,478.833 400,479.667 402,480C403.973,480.329 406.088,480.588 408,480C410.167,479.333 413.389,477.111 415,476" style="fill:none;stroke:rgb(0,126,207);stroke-width:4.53px;"/>
        <path d="M429,399C431,398.389 435,397.167 438,397C441,396.833 444.072,397.268 447,398C450.333,398.833 454.833,399.833 458,402C461.167,404.167 464.5,407.5 466,411C467.5,414.5 467.333,419 467,423C466.667,427 465.154,431.042 464,435C462.833,439 461.5,443.167 460,447C458.532,450.751 456.667,455 455,458C453.607,460.507 451.333,463.333 450,465C449.117,466.104 447.585,466.713 447,468C446.167,469.833 445.403,473.281 445,476C444.333,480.5 443.833,490.333 443,495C442.444,498.113 441.667,501.667 440,504C438.333,506.333 435.5,508 433,509C430.505,509.998 427.333,510.5 425,510C422.667,509.5 420.442,507.923 419,506C417.5,504 416.495,500.805 416,498C415.5,495.167 416,492 416,489L416,479C416,476.333 416.333,473 416,471C415.755,469.53 415.167,467.667 414,467C412.833,466.333 410.617,467.404 409,467C407,466.5 404.066,465.476 402,464C399.667,462.333 396.333,460 395,457C393.667,454 394.153,449.679 394,446C393.833,442 393.833,437.33 394,433C394.167,428.667 394.167,423.667 395,420C395.728,416.799 397.667,413.5 399,411C400.131,408.879 401.3,406.7 403,405C405,403 408.167,400.167 411,399C413.791,397.851 417,397.833 420,398C423,398.167 426.333,399.167 429,400C431.423,400.757 433.934,401.524 436,403C438.333,404.667 441.167,407.833 443,410C444.553,411.835 445.807,413.913 447,416C448.333,418.333 450.333,421.333 451,424C451.647,426.587 451.166,429.339 451,432C450.833,434.667 450,437.5 450,440C450,442.357 450.843,444.648 451,447C451.167,449.5 451.333,452.833 451,455C450.727,456.774 449.576,458.925 449,460" style="fill:none;stroke:rgb(0,126,207);stroke-width:4.53px;"/>
        <path d="M403,403C400.556,401.889 395.667,399.667 392,399C388.392,398.344 384.537,398.035 381,399C377.333,400 372.667,402 370,405C367.333,408 365.833,413.167 365,417C364.221,420.583 364.695,424.346 365,428C365.333,432 366.081,436.713 367,441C368,445.667 369.5,451.167 371,456C372.469,460.733 374.333,466.5 376,470C377.233,472.589 379.5,475.5 381,477C382.054,478.054 383.518,479.165 385,479C386.5,478.833 388.626,477.374 390,476C391.667,474.333 393.5,471.167 395,469C396.368,467.024 398.123,464.341 399,463" style="fill:none;stroke:rgb(0,126,207);stroke-width:4.53px;"/>
    </g>
</svg>
