<?xml version="1.0" encoding="UTF-8" standalone="no"?>
<!DOCTYPE svg PUBLIC "-//W3C//DTD SVG 1.1//EN" "http://www.w3.org/Graphics/SVG/1.1/DTD/svg11.dtd">
<svg width="100%" height="100%" viewBox="0 0 118 118" version="1.1" xmlns="http://www.w3.org/2000/svg" xmlns:xlink="http://www.w3.org/1999/xlink" xml:space="preserve" xmlns:serif="http://www.serif.com/" style="fill-rule:evenodd;clip-rule:evenodd;stroke-linecap:round;stroke-linejoin:round;stroke-miterlimit:1.5;">
    <g id="Python" transform="matrix(0.227937,0,0,0.227937,-29.3235,-0.777989)">
        <g transform="matrix(1,0,0,1,-13.098,-13.098)">
            <path d="M291,152L291,97C289.875,96.235 300.188,79.464 308,74C316.677,67.931 330.797,63.065 343.062,60.584C357.895,57.584 380.62,56.095 397,56C411.841,55.914 427.675,57.181 441.342,60.015C454.344,62.71 468.89,66.336 479,73C488.871,79.507 499.309,93.161 502,100C504.691,106.839 503,215 503,215C503,215 502.335,232.154 494,242C490.439,246.207 485.167,253.2 478.005,257.539C468.404,263.357 457,266 457,266L332,266C331.161,265.381 312.995,267.409 305,272C296.77,276.726 287.286,286.187 282.619,294.354C278.116,302.235 276.201,316.207 277,321L277,382L239,382C236.965,384.732 210.494,370.84 201,360C191.506,349.16 185.871,331.125 182.038,316.959C178.368,303.396 177.656,289.047 178,275C178.39,259.08 179.877,236.437 184.377,221.437C188.387,208.069 195.896,193.739 205,185C214.036,176.326 238.267,168.212 239,169L396,169L396,152L291,152Z" style="fill:none;stroke:rgb(51,104,150);stroke-width:17.55px;"/>
            <g transform="matrix(1,0,0,1,-1,-3)">
                <circle cx="337.5" cy="111.5" r="18.5" style="fill:none;stroke:rgb(51,104,150);stroke-width:17.55px;"/>
            </g>
        </g>
        <g transform="matrix(-1,-1.22465e-16,1.22465e-16,-1,788.081,537.612)">
            <path d="M291,152L291,97C289.875,96.235 300.188,79.464 308,74C316.677,67.931 330.797,63.065 343.062,60.584C357.895,57.584 380.62,56.095 397,56C411.841,55.914 427.675,57.181 441.342,60.015C454.344,62.71 468.89,66.336 479,73C488.871,79.507 499.309,93.161 502,100C504.691,106.839 503,215 503,215C503,215 502.335,232.154 494,242C490.439,246.207 485.167,253.2 478.005,257.539C468.404,263.357 457,266 457,266L332,266C331.161,265.381 312.995,267.409 305,272C296.77,276.726 287.286,286.187 282.619,294.354C278.116,302.235 276.201,316.207 277,321L277,382L239,382C236.965,384.732 210.494,370.84 201,360C191.506,349.16 185.871,331.125 182.038,316.959C178.368,303.396 177.656,289.047 178,275C178.39,259.08 179.877,236.437 184.377,221.437C188.387,208.069 195.896,193.739 205,185C214.036,176.326 238.267,168.212 239,169L396,169L396,152L291,152Z" style="fill:none;stroke:rgb(255,196,13);stroke-width:17.55px;"/>
            <g transform="matrix(1,0,0,1,-1,-3)">
                <circle cx="337.5" cy="111.5" r="18.5" style="fill:none;stroke:rgb(255,196,13);stroke-width:17.55px;"/>
            </g>
        </g>
    </g>
</svg>
