<?xml version="1.0" encoding="UTF-8" standalone="no"?>
<!DOCTYPE svg PUBLIC "-//W3C//DTD SVG 1.1//EN" "http://www.w3.org/Graphics/SVG/1.1/DTD/svg11.dtd">
<svg width="100%" height="100%" viewBox="0 0 210 210" version="1.1" xmlns="http://www.w3.org/2000/svg" xmlns:xlink="http://www.w3.org/1999/xlink" xml:space="preserve" xmlns:serif="http://www.serif.com/" style="fill-rule:evenodd;clip-rule:evenodd;stroke-linecap:round;stroke-linejoin:round;stroke-miterlimit:1.5;">
    <g transform="matrix(0.416667,0,0,0.416667,-62.7083,-18.3333)">
        <path d="M424,222L425,164C425,164 443.036,163.197 452,164C463.167,165 492,170 492,170C492,170 483.273,170.209 479,171C474.5,171.833 469,173.333 465,175C461.412,176.495 458.129,178.694 455,181C451.833,183.333 448.685,186.017 446,189C443,192.333 439.167,197.167 437,201C435.08,204.397 434,208.5 433,212C432.066,215.269 431,222 431,222L424,222Z" style="fill:none;stroke:rgb(0,79,57);stroke-width:9.6px;"/>
        <path d="M270,281L277,263L319,280L315,289L270,281Z" style="fill:none;stroke:rgb(0,79,57);stroke-width:9.6px;"/>
        <path d="M195,508C195,508 200.567,503.576 203,501C205.833,498 209.5,493.667 212,490C214.353,486.549 216.373,482.847 218,479C219.833,474.667 221.793,469.13 223,464C224.333,458.333 225.727,451.406 226,445C226.333,437.167 226.276,426.252 225,417C223.667,407.333 220.664,396.917 218,387C215,375.833 210.121,362.483 207,350C203.833,337.333 200.381,324.199 199,311C197.5,296.667 196.456,279.594 198,264C199.667,247.167 204.167,225 209,210C213.115,197.23 220.5,184.5 227,174C233.001,164.305 240.355,155.459 248,147C255.833,138.333 264.598,129.494 274,122C285.5,112.833 302.833,100.167 317,92C330.312,84.326 344.504,78.097 359,73C374.167,67.667 391.833,62.833 408,60C423.814,57.228 439.945,56 456,56C472.167,56 488.906,56.911 505,60C521.5,63.167 542.667,70.667 555,75C563.303,77.917 574,83.667 579,86C581.026,86.946 585,89 585,89L547,169C547,169 543.039,166.918 541,166C537.667,164.5 531.795,161.668 527,160C519.333,157.333 505.952,152.222 495,150C483.5,147.667 470.398,146.432 458,146C443.667,145.5 425.145,144.503 409,147C392.833,149.5 376.336,154.474 361,161C345.333,167.667 328.333,176.833 315,187C302.066,196.862 290.5,209.667 281,222C271.79,233.957 263.633,246.998 258,261C252.167,275.5 247.333,294.333 246,309C244.787,322.345 248.333,336.333 250,349C251.587,361.062 254.833,374 256,385C257.055,394.95 257.867,405.032 257,415C256,426.5 253.5,442.833 250,454C246.879,463.957 241.5,474 236,482C230.791,489.577 222.167,497.833 217,502C213.627,504.72 208.667,506 205,507C201.768,507.881 195,508 195,508Z" style="fill:none;stroke:rgb(0,79,57);stroke-width:9.6px;"/>
        <path d="M283,252L293,234L332,263L326,273L283,252Z" style="fill:none;stroke:rgb(0,79,57);stroke-width:9.6px;"/>
        <path d="M301,225L315,209L349,248L341,256L301,225Z" style="fill:none;stroke:rgb(0,79,57);stroke-width:9.6px;"/>
        <path d="M325,202L342,190L369,237L359,243L325,202Z" style="fill:none;stroke:rgb(0,79,57);stroke-width:9.6px;"/>
        <path d="M354,185L376,175L390,227L378,232L354,185Z" style="fill:none;stroke:rgb(0,79,57);stroke-width:9.6px;"/>
        <path d="M388,172L412,166L411,223L400,225L388,172Z" style="fill:none;stroke:rgb(0,79,57);stroke-width:9.6px;"/>
        <path d="M309,301L308,309C308,309 303.305,308.636 301,309C297.833,309.5 292.667,310.333 289,312C285.333,313.667 281.713,315.968 279,319C276.167,322.167 273.856,326.757 272,331C269.667,336.333 265,351 265,351C265,351 264.5,328.5 265,319C265.441,310.618 268,294 268,294L309,301Z" style="fill:none;stroke:rgb(0,79,57);stroke-width:9.6px;"/>
        <path d="M436,464C436,464 404.833,471.667 391,475C378.345,478.049 363,481.833 353,484C345.715,485.578 331,488 331,488C331,488 334.869,474.106 336,467C337.167,459.667 338.29,451.69 338,444C337.667,435.167 336.063,423.875 334,414C331.667,402.833 326.167,387.667 324,377C322.197,368.126 320.847,359.054 321,350C321.167,340.167 323,326.5 325,318C326.574,311.311 330,304.667 333,299C335.812,293.689 339.667,288.5 343,284C346.099,279.816 349.244,275.606 353,272C357.167,268 363.167,263.5 368,260C372.493,256.746 377.038,253.481 382,251C387,248.5 392.667,246.667 398,245C403.247,243.36 409,241.833 414,241C418.615,240.231 423.333,240.167 428,240C432.664,239.833 437.336,239.833 442,240C446.667,240.167 451.365,240.361 456,241C460.833,241.667 466.167,242.833 471,244C475.718,245.139 480.5,246.333 485,248C489.476,249.658 493.833,251.833 498,254C502.109,256.136 506.167,258.5 510,261C513.798,263.477 517.5,266.167 521,269C524.486,271.822 528.141,274.545 531,278C535,282.833 541.5,292.5 545,298C547.642,302.152 550,306.833 552,311C553.875,314.907 555.416,318.967 557,323C558.833,327.667 561,334 563,339C564.886,343.714 566.862,348.395 569,353C571.167,357.667 573.833,362.667 576,367C578,371 579.88,375.062 582,379C584.333,383.333 587.167,388.5 590,393C592.808,397.46 596.333,402 599,406C601.411,409.616 604.167,414.167 606,417C607.306,419.018 610,423 610,423C610,423 606.637,423.312 605,423C601.5,422.333 594.378,420.141 589,419C583.5,417.833 575.833,416.667 572,416C570.002,415.653 566,415 566,415C566,415 566.841,409.014 567,406C567.167,402.833 567.441,399.304 567,396C566.333,391 565.333,382.167 563,376C560.673,369.851 555.833,363 553,359C551.093,356.307 548,353.667 546,352C544.507,350.756 542.864,349.552 541,349C538.768,348.339 534.566,346.308 530.289,345.335C525.943,344.348 521.52,344.42 519,344C516.37,343.562 513.63,343.562 511,344C507,344.667 499.833,345.5 495,348C490.167,350.5 484.5,356.667 482,359C481.121,359.82 479.249,361.062 480,362C482,364.5 489.667,370.833 494,374C497.739,376.732 502.333,379.333 506,381C509.168,382.44 513,383.5 516,384C518.63,384.438 521.333,384 524,384L543,384L543,413C543,416.833 542.833,422.833 543,427C543.147,430.679 543.656,434.334 544,438C544.5,443.333 545.333,453.333 546,459C546.512,463.354 547.428,467.653 548,472C548.833,478.333 549.569,488.73 551,497C552.5,505.667 555.667,518.167 557,524C557.612,526.68 558.5,530 559,532C559.333,533.333 560,536 560,536C560,536 557.987,535.37 557,535C554.333,534 548.215,531.946 544,530C537.5,527 526.427,521.783 518,517C505.667,510 482.833,496.167 470,488C460.093,481.696 446.667,472 441,468C439.256,466.769 436,464 436,464Z" style="fill:none;stroke:rgb(0,79,57);stroke-width:9.6px;"/>
    </g>
</svg>
