<?xml version="1.0" encoding="UTF-8" standalone="no"?>
<!DOCTYPE svg PUBLIC "-//W3C//DTD SVG 1.1//EN" "http://www.w3.org/Graphics/SVG/1.1/DTD/svg11.dtd">
<svg width="100%" height="100%" viewBox="0 0 118 118" version="1.1" xmlns="http://www.w3.org/2000/svg" xmlns:xlink="http://www.w3.org/1999/xlink" xml:space="preserve" xmlns:serif="http://www.serif.com/" style="fill-rule:evenodd;clip-rule:evenodd;stroke-linecap:round;stroke-linejoin:round;stroke-miterlimit:1.5;">
    <g id="Swift" transform="matrix(0.280899,0,0,0.280899,-57.3466,-33.9775)">
        <path d="M217,381C217,381 225.961,385.903 233.12,390.418C245.201,398.037 260.802,408.081 272,413C288.517,420.255 308.333,425.167 324,428C337.792,430.494 352.048,431.336 366,430C381.667,428.5 405.5,422.833 418,419C426.267,416.465 441,407 441,407C441,407 404.333,376.833 389,363C375.173,350.526 360.667,336.333 349,324C338.441,312.837 328.686,300.929 319,289C307.537,274.883 277.206,239.538 262.346,220.152C256.68,212.761 254,207 254,207C254,207 260.28,210.373 268.222,217.059C286.127,232.133 316.642,260.145 335,274C360.09,292.936 410,329.833 413,327C416,324.167 371.5,280.5 353,257C341.55,242.455 322.99,218.343 311.658,202.304C305.151,193.095 302,186 302,186C302,186 309.077,190.956 317.563,199.121C332.309,213.308 354.253,235.529 369,248C393.833,269 430,296.167 451,312C465.326,322.801 495,343 495,343C495,343 506.5,298.167 506,276C505.5,253.833 499.667,230.5 492,210C486.959,196.519 473.743,177.797 465.928,165.438C461.911,159.086 460,153 460,153C460,153 465.768,154.047 472.313,158.678C482.345,165.776 496.055,177.429 504,185C518.167,198.5 533.333,216.667 545,234C556.573,251.194 567.333,270.167 574,289C580.566,307.55 584.333,328.333 585,347C585.648,365.139 578,401 578,401C578,401 593.16,419.999 598,431C603.5,443.5 609.167,463 611,476C612.539,486.912 609,509 609,509C609,509 600.41,497.578 595,493C588.5,487.5 579.167,479 570,476C560.833,473 549.834,473.156 540,475C529.333,477 516.333,484 506,488C496.648,491.62 487.648,496.266 478,499C468,501.833 456.852,504.885 446,505C430.333,505.167 402.5,503.667 384,500C367.041,496.639 350.778,490.067 335,483C319,475.833 302.5,467 288,457C273.594,447.065 258.833,433.667 248,423C238.724,413.867 228.167,400 223,393C220.344,389.402 217,381 217,381Z" style="fill:none;stroke:rgb(255,43,16);stroke-width:14.24px;"/>
    </g>
</svg>
