<?xml version="1.0" encoding="UTF-8" standalone="no"?>
<!DOCTYPE svg PUBLIC "-//W3C//DTD SVG 1.1//EN" "http://www.w3.org/Graphics/SVG/1.1/DTD/svg11.dtd">
<svg width="100%" height="100%" viewBox="0 0 210 210" version="1.1" xmlns="http://www.w3.org/2000/svg" xmlns:xlink="http://www.w3.org/1999/xlink" xml:space="preserve" xmlns:serif="http://www.serif.com/" style="fill-rule:evenodd;clip-rule:evenodd;stroke-linecap:round;stroke-linejoin:round;stroke-miterlimit:1.5;">
    <g transform="matrix(0.461577,0,0,0.461577,-70.8907,-60.0136)">
        <g transform="matrix(1,0,0,1,-85.47,0)">
            <g transform="matrix(1,0,0,1,59.015,-67.155)">
                <path d="M559,291C555.667,290.167 549.167,291.667 547,294C544.833,296.333 545.333,302 546,305C546.622,307.799 548.349,310.908 551,312C553.833,313.167 560.333,314.167 563,312C565.667,309.833 567.667,302.5 567,299C566.333,295.5 562.333,291.833 559,291Z" style="fill:none;stroke:black;stroke-width:8.67px;"/>
                <path d="M528,261C529.167,274.278 531.5,300.833 533,310C533.388,312.372 535.796,314.791 537,316" style="fill:none;stroke:black;stroke-width:8.67px;"/>
                <path d="M515,263C515.944,276.444 517.833,303.333 519,312C519.189,313.402 521.063,314.467 522,315" style="fill:none;stroke:black;stroke-width:8.67px;"/>
                <path d="M466,267C467.333,283.667 468.667,300.333 470,317" style="fill:none;stroke:black;stroke-width:8.67px;"/>
                <path d="M440,295C449.333,294.333 458.667,293.667 468,293" style="fill:none;stroke:black;stroke-width:8.67px;"/>
                <path d="M439,270C439.667,286.667 440.333,303.333 441,320" style="fill:none;stroke:black;stroke-width:8.67px;"/>
                <g transform="matrix(1,0,0,1,-6,3)">
                    <path d="M491,299C495.556,298.889 504.667,298.667 507,297C509.237,295.402 506.833,290.667 505,289C503.167,287.333 498.667,286.5 496,287C493.333,287.5 489.954,289.296 489,292C488,294.833 488.667,300.5 490,304C491.333,307.5 494.167,311.667 497,313C499.833,314.333 504.167,312.833 507,312C509.578,311.242 512.526,309.081 514,308" style="fill:none;stroke:black;stroke-width:8.67px;"/>
                </g>
            </g>
            <path d="M307.05,230.175L307.05,154L688.6,154L688.6,534L400.435,534" style="fill:none;stroke:black;stroke-width:8.67px;"/>
        </g>
        <g>
            <path d="M337,296C335.833,295.5 334.294,295.677 333,296C331.667,296.333 329.605,296.638 329,298C328.333,299.5 328.5,303 329,305C329.471,306.886 330.667,309.167 332,310C333.333,310.833 335.667,310.667 337,310C338.333,309.333 339.561,307.608 340,306C340.5,304.167 340.5,300.667 340,299C339.594,297.645 338.167,296.5 337,296Z" style="fill:none;stroke:rgb(0,134,255);stroke-width:8.67px;"/>
            <path d="M274,312C271.667,311.833 267,312.167 265,314C263,315.833 261.5,320.333 262,323C262.5,325.667 265.833,328.833 268,330C270.054,331.106 272.946,331.106 275,330C277.167,328.833 280.333,325.5 281,323C281.667,320.5 280.167,316.833 279,315C277.957,313.36 275.939,312.138 274,312Z" style="fill:none;stroke:rgb(0,134,255);stroke-width:8.67px;"/>
            <path d="M235,384C247.111,388.389 271.333,397.167 284,400C292.789,401.966 304,403 311,401C317.362,399.182 323.121,391.727 326,388" style="fill:none;stroke:rgb(210,172,146);stroke-width:8.67px;"/>
            <path d="M301,267C302.167,273.111 304.5,285.333 307,292C309.047,297.46 312.766,302.148 316,307C320,313 328.333,321.5 331,328C333.281,333.56 334.667,341.167 332,346C329.333,350.833 320.5,355.167 315,357C309.94,358.687 302.647,357.562 299,357" style="fill:none;stroke:rgb(210,172,146);stroke-width:8.67px;"/>
            <path d="M269,458C268.333,453 267.667,448 267,443" style="fill:none;stroke:rgb(216,169,137);stroke-width:8.67px;"/>
            <path d="M171,351C169.204,347.304 165.612,339.912 164,334C162,326.667 159,315.833 159,307C159,298.175 160.333,289 164,281C167.667,273 174.174,265.269 181,259C189.167,251.5 202,242.167 213,236C223.691,230.006 236.333,225.167 247,222C256.719,219.115 267.833,217.5 277,217C285.348,216.545 294.053,216.405 302,219C310.167,221.667 319.959,225.98 326,233C332.167,240.167 336.833,254.833 339,262C340.35,266.467 338.301,271.386 339,276C339.833,281.5 342.167,289 344,295C345.756,300.747 347.768,306.421 350,312C352.333,317.833 356.174,323.693 358,330C359.833,336.333 360.329,343.292 361,350C361.833,358.333 364.161,370.045 363,380C361.833,390 358.167,401.833 354,410C350.237,417.375 344.482,423.848 338,429C331.5,434.167 323.248,438.403 315,441C306,443.833 293.667,446.167 284,446C274.782,445.841 262.927,441.947 257,440" style="fill:none;stroke:rgb(210,172,146);stroke-width:8.67px;"/>
            <path d="M201,383C200.222,385.556 198.667,390.667 196,393C193.333,395.333 188.642,398.401 185,397C180.667,395.333 173.333,387.5 170,383C167.236,379.269 165.5,374 165,370C164.538,366.302 165.167,362.167 167,359C168.833,355.833 172.106,351.974 176,351C180,350 187.333,352 191,353" style="fill:none;stroke:rgb(210,172,146);stroke-width:8.67px;"/>
            <path d="M173,348C184.333,344.667 207,338 207,338C207,338 204.333,330.667 205,327C205.667,323.333 207.659,318.506 211,316C216.333,312 228.167,306.833 237,303C245.804,299.179 256.833,294.5 264,293C269.23,291.905 276.333,292.833 280,294C282.695,294.858 286,300 286,300C286,300 296.667,297.167 301,296C304.67,295.012 312,293 312,293C312,293 309.5,282.5 312,279C314.5,275.5 321.779,273.786 327,272C333.333,269.833 344.5,266 350,266C353.887,266 357.667,269.167 360,272C362.333,274.833 363.379,279.148 364,283C364.833,288.167 365.167,298 365,303C364.887,306.397 365.527,310.726 363,313C359.667,316 350,319.333 345,321C341.153,322.282 336.092,325.624 333,323C327.5,318.333 312,293 312,293C312,293 304.67,295.012 301,296C296.667,297.167 286,300 286,300C286,300 292.167,328.333 290,337C288.167,344.332 279.789,348.681 273,352C265.5,355.667 253,357.833 245,359C238.403,359.962 230.5,361.333 225,359C219.5,356.667 215,348.5 212,345C210.134,342.823 207,338 207,338" style="fill:none;stroke:black;stroke-width:8.67px;"/>
            <g transform="matrix(0.999973,0.00737369,-0.00737369,0.999973,4.06894,-3.73509)">
                <path d="M519,468L527,463C527,463 529,463.833 530,464C530.986,464.164 532.029,464.239 533,464C534.107,463.728 536.642,462.368 536.642,462.368L540.137,465.505C540.137,465.505 535.639,467.741 534.411,468.515C533.758,468.926 533.027,469.483 532.769,470.147C532.511,470.81 532.863,472.495 532.863,472.495L523.863,477.495" style="fill:none;stroke:black;stroke-width:8.67px;"/>
            </g>
            <g transform="matrix(-0.999973,-0.00737369,0.00737369,-0.999973,982.294,976.922)">
                <path d="M519,468L527,463L532.863,472.495L523.863,477.495" style="fill:none;stroke:black;stroke-width:8.67px;"/>
            </g>
            <path d="M230,463C227.16,455.321 221.481,439.963 216,429C210.167,417.333 200.056,401.111 195,393" style="fill:none;stroke:rgb(210,172,146);stroke-width:8.67px;"/>
            <path d="M513,481C514.5,480.167 517.5,478.5 519,478C519.949,477.684 521.219,477.375 522,478C522.833,478.667 523.21,480.736 524,482C524.833,483.333 526.167,484.667 527,486C527.79,487.264 528.833,488.667 529,490C529.167,491.333 528.799,492.882 528,494C527.167,495.167 525.5,496.5 524,497C522.5,497.5 520.596,497.479 519,497C517.333,496.5 515.111,494.833 514,494" style="fill:none;stroke:rgb(210,172,146);stroke-width:8.67px;"/>
            <path d="M499,500C500.071,500.612 502.212,501.837 504,502C505.833,502.167 508.5,501.833 510,501C511.457,500.191 512.849,498.66 513,497C513.167,495.167 511.722,491.722 511,490" style="fill:none;stroke:rgb(210,172,146);stroke-width:8.67px;"/>
            <path d="M482,490C481.413,491.16 480.24,493.48 481,495C482.167,497.333 486.667,502.5 489,504C490.682,505.082 493.5,504.167 495,504C496.048,503.884 497.342,503.823 498,503C498.667,502.167 499.152,500.366 499,499C498.833,497.5 497.611,495.167 497,494" style="fill:none;stroke:rgb(210,172,146);stroke-width:8.67px;"/>
            <path d="M468,497C467.778,498.167 467.333,500.5 468,502C468.667,503.5 470.512,504.842 472,506C473.5,507.167 475.5,508.333 477,509C478.256,509.558 479.667,510.167 481,510C482.333,509.833 484,509 485,508C486,507 487.333,505.333 487,504C486.667,502.667 484.167,501.333 483,500C481.902,498.746 481.167,497 480,496C478.868,495.03 476.956,494.343 476,494" style="fill:none;stroke:rgb(210,172,146);stroke-width:8.67px;"/>
            <path d="M367,459C369.441,458.538 374.324,457.613 378,457C383,456.167 390.616,454.594 397,454C404.167,453.333 414.333,453.333 421,453C426.337,452.733 432,452.167 437,452C441.664,451.845 446.336,451.845 451,452C456,452.167 461.656,453 467,453C472.5,453 478.325,451.858 484,452C490.667,452.167 501.333,451 507,454C512.667,457 518,466.333 518,470C518,473.667 508,473.833 507,476C506,478.167 511.167,481 512,483C512.641,484.538 512.857,486.571 512,488C511,489.667 508,492 506,493C504.186,493.907 501.841,494.85 500,494C497.833,493 495.667,488 493,487C490.333,486 486.5,487.167 484,488C481.72,488.76 480.15,490.925 478,492C475.667,493.167 472.831,494.685 470,495C467,495.333 462.667,495.333 460,494C457.333,492.667 456.667,488.167 454,487C451.333,485.833 447.333,487 444,487C440,487 434.5,486.833 430,487C425.657,487.161 421,487.667 417,488C413.331,488.306 409.679,488.847 406,489C402,489.167 397.167,489 393,489C389,489 384.997,489.148 381,489C376.5,488.833 369.5,488.278 366,488" style="fill:none;stroke:rgb(210,172,146);stroke-width:8.67px;"/>
            <path d="M297,472L297,467L270,457C270,457 267.872,462.929 268,466C268.167,470 270.056,477.333 271,481" style="fill:none;stroke:black;stroke-width:8.67px;"/>
            <path d="M180,561L209,561C209,561 213.833,548.167 216,543C217.846,538.599 219.667,531.833 222,530C224.161,528.302 228.229,529.897 230,532C232.667,535.167 236.167,544.167 238,549C239.462,552.855 241,561 241,561L313,558C313,558 315,541.833 315,534C315,526.304 311.5,517.333 313,511C314.429,504.967 318.644,499.124 324,496C330,492.5 342.5,490.667 349,490C353.689,489.519 363,492 363,492L366,456C366,456 337.5,461.333 326,464C316.231,466.265 297,472 297,472L295,495L275,485L265,514C265,514 244.333,502.333 237,498C231.585,494.8 221,488 221,488C221,488 211.915,488.085 209,491C205.333,494.667 202.027,503.514 199,510C195.5,517.5 191.167,527.5 188,536C184.945,544.199 180,561 180,561Z" style="fill:none;stroke:black;stroke-width:8.67px;"/>
            <path d="M221,488C221.667,479 223,461 223,461C223,461 258.333,477 276,485" style="fill:none;stroke:black;stroke-width:8.67px;"/>
        </g>
    </g>
</svg>
