<?xml version="1.0" encoding="UTF-8" standalone="no"?>
<!DOCTYPE svg PUBLIC "-//W3C//DTD SVG 1.1//EN" "http://www.w3.org/Graphics/SVG/1.1/DTD/svg11.dtd">
<svg width="100%" height="100%" viewBox="0 0 210 210" version="1.1" xmlns="http://www.w3.org/2000/svg" xmlns:xlink="http://www.w3.org/1999/xlink" xml:space="preserve" xmlns:serif="http://www.serif.com/" style="fill-rule:evenodd;clip-rule:evenodd;stroke-linecap:round;stroke-linejoin:round;stroke-miterlimit:1.5;">
    <g transform="matrix(1,0,0,1,-135.431,-66.8422)">
        <g id="Earth" transform="matrix(0.703444,0,0,0.703444,-6.78102,-86.9141)">
            <g>
                <path d="M208,362C207.838,368.26 207.513,380.78 209,390C210.667,400.333 213.167,413.333 218,424C222.833,434.667 230.106,444.937 238,454C247,464.333 263.833,479.167 272,486C276.472,489.742 283.491,493.247 287,495" style="fill:none;stroke:rgb(76,140,255);stroke-width:5.69px;"/>
                <path d="M248,269C246.333,271 244.667,273 243,275" style="fill:none;stroke:rgb(76,140,255);stroke-width:5.69px;"/>
                <path d="M279,246C274,249 269,252 264,255" style="fill:none;stroke:rgb(76,140,255);stroke-width:5.69px;"/>
                <path d="M310,233C308.667,233.333 307.333,233.667 306,234" style="fill:none;stroke:rgb(76,140,255);stroke-width:5.69px;"/>
                <path d="M439,255C434.778,252.167 426.333,246.5 420,243C413.866,239.61 407.6,236.357 401,234C394,231.5 383.333,229.167 378,228" style="fill:none;stroke:rgb(76,140,255);stroke-width:5.69px;"/>
                <path d="M490,409C490.667,406.667 491.333,404.333 492,402" style="fill:none;stroke:rgb(76,140,255);stroke-width:5.69px;"/>
                <path d="M471,449C475,442 479,435 483,428" style="fill:none;stroke:rgb(76,140,255);stroke-width:5.69px;"/>
                <path d="M303,502C308.778,503.556 320.333,506.667 328,508C334.928,509.205 341.968,510 349,510C356.833,510 366.667,509.333 375,508C383.143,506.697 391.177,504.608 399,502C407,499.333 417.667,494.444 423,492" style="fill:none;stroke:rgb(76,140,255);stroke-width:5.69px;"/>
            </g>
            <g>
                <path d="M374,268C375.167,267.167 377.333,268 379,268C380.667,268 382.5,268.333 384,268C385.455,267.677 386.667,266 388,266C389.333,266 391.333,267 392,268C392.667,269 392.596,270.807 392,272C391.333,273.333 389.333,274.667 388,276C386.5,277.5 384.5,280.333 383,281C381.744,281.558 380.256,280.558 379,280C377.5,279.333 375.167,278.167 374,277C372.946,275.946 372,274.491 372,273C372,271.5 372.833,268.833 374,268Z" style="fill:none;stroke:rgb(0,100,50);stroke-width:5.69px;"/>
                <path d="M440,255C440,255 437.745,257.509 437,259C436.167,260.667 435.833,263.167 435,265C434.196,266.769 433.214,268.482 432,270C430.667,271.667 428.333,273.667 427,275C426,276 424.92,276.926 424,278C423,279.167 421.5,280.5 421,282C420.5,283.5 420.667,285.5 421,287C421.323,288.455 422,290.667 423,291C424,291.333 425.833,289.5 427,289C427.969,288.585 429.177,287.342 430,288C430.833,288.667 431.333,291.5 432,293C432.605,294.362 433.167,296.667 434,297C434.833,297.333 436.301,295.978 437,295C437.833,293.833 438.5,291.667 439,290C439.488,288.372 440.333,286.333 440,285C439.667,283.667 437,283 437,282C437,281 439.313,280.236 440,279C440.833,277.5 441,274.5 442,273C442.925,271.613 444.667,270.5 446,270C447.248,269.532 449.333,269.5 450,270C450.667,270.5 450.164,272.014 450,273C449.833,274 449.333,275 449,276C448.667,277 448.167,278 448,279C447.836,279.986 447.833,281.167 448,282C448.146,282.731 448.667,283.333 449,284C449.333,284.667 449.5,285.667 450,286C450.5,286.333 451.353,286.162 452,286C452.667,285.833 453.5,285.5 454,285C454.5,284.5 454.5,283.5 455,283C455.5,282.5 456.5,281.833 457,282C457.5,282.167 457.667,283.5 458,284C458.261,284.392 458.789,284.578 459,285C459.333,285.667 460,287.167 460,288C460,288.745 459.596,289.553 459,290C458.333,290.5 456.833,290.667 456,291C455.308,291.277 454.527,291.473 454,292C453.333,292.667 452.667,294.167 452,295C451.411,295.736 450.808,296.515 450,297C449.167,297.5 447.667,297.5 447,298C446.404,298.447 446.277,299.308 446,300C445.667,300.833 445.823,302.342 445,303C444.167,303.667 442.342,303.702 441,304C439.5,304.333 437.694,304.859 436,305C434,305.167 430.667,305.167 429,305C427.951,304.895 426.833,304.167 426,304C425.346,303.869 424.5,303.833 424,304C423.553,304.149 423.243,304.596 423,305C422.5,305.833 421.667,307.833 421,309C420.404,310.043 419.667,311 419,312C418.333,313 417.833,314.167 417,315C416.167,315.833 415.105,316.527 414,317C412.833,317.5 411.167,317.667 410,318C408.986,318.29 408,318.833 407,319C406.014,319.164 404.5,318.667 404,319C403.5,319.333 403.702,320.404 404,321C404.333,321.667 405.333,322.5 406,323C406.596,323.447 407.404,323.553 408,324C408.667,324.5 409.5,325.333 410,326C410.447,326.596 410.667,327.333 411,328C411.333,328.667 412,329.333 412,330C412,330.667 411.333,331.667 411,332C410.764,332.236 410.333,332 410,332L404,332C403,332 401.986,331.836 401,332C400,332.167 398.667,332.333 398,333C397.333,333.667 397.167,335.167 397,336C396.869,336.654 397,337.333 397,338L397,343C397,343.667 396.833,344.5 397,345C397.149,345.447 397.553,345.851 398,346C398.5,346.167 399.342,346.11 400,346C401,345.833 402.667,345.333 404,345C405.333,344.667 407,344.667 408,344C409,343.333 409.5,342 410,341C410.471,340.057 410.667,339 411,338C411.333,337 411.333,335.667 412,335C412.667,334.333 414,334.333 415,334C416,333.667 417.123,333.585 418,333C419,332.333 419.833,330.5 421,330C422.167,329.5 423.833,330 425,330C426,330 427.167,329.667 428,330C428.833,330.333 429.264,331.411 430,332C430.833,332.667 432.333,333.167 433,334C433.658,334.823 433.529,336.057 434,337C434.5,338 435.667,339.167 436,340C436.248,340.619 435.838,341.353 436,342C436.167,342.667 437.167,343.667 437,344C436.833,344.333 435.5,343.667 435,344C434.5,344.333 434.167,345.333 434,346C433.838,346.647 433.6,347.467 434,348C434.5,348.667 436.167,349.833 437,350C437.731,350.146 438.667,349.5 439,349C439.333,348.5 439.248,347.619 439,347C438.667,346.167 437,344.667 437,344C437,343.333 438.333,343.167 439,343C439.647,342.838 440.404,343.298 441,343C441.667,342.667 443,341.833 443,341C443,340.167 441.667,338.833 441,338C440.411,337.264 439.667,336.667 439,336C438.333,335.333 437.589,334.736 437,334C436.333,333.167 435.667,332 435,331C434.333,330 433.167,328.833 433,328C432.854,327.269 433.333,326.167 434,326C434.667,325.833 436.167,326.5 437,327C437.808,327.485 438.264,328.411 439,329C439.833,329.667 441.167,330.333 442,331C442.736,331.589 443.333,332.5 444,333C444.596,333.447 445.5,333.667 446,334C446.392,334.261 446.886,334.543 447,335C447.167,335.667 447,337 447,338C447,339.167 446.833,341 447,342C447.123,342.735 447.553,343.404 448,344C448.5,344.667 449.192,345.515 450,346C450.833,346.5 452.333,347.167 453,347C453.667,346.833 454.167,345.667 454,345C453.833,344.333 452.333,343.833 452,343C451.667,342.167 451.667,340.667 452,340C452.333,339.333 453.269,338.854 454,339C454.833,339.167 456.333,340.167 457,341C457.658,341.823 457.833,343 458,344C458.164,344.986 458.164,346.014 458,347C457.833,348 457.667,349.333 457,350C456.333,350.667 454.833,350.5 454,351C453.192,351.485 451.833,352.333 452,353C452.167,353.667 454.167,354.667 455,355C455.619,355.248 456.381,355.248 457,355C457.833,354.667 459.167,353.833 460,353C460.833,352.167 461.167,350.5 462,350C462.833,349.5 464,350 465,350C466.167,350 467.833,349.833 469,350C470.043,350.149 471.342,350.177 472,351C472.667,351.833 473,353.833 473,355C473,356.054 472.523,357.085 472,358C471.333,359.167 470.167,361.333 469,362C467.842,362.662 466.333,362 465,362C463.5,362 461.5,362.167 460,362C458.634,361.848 457,361.667 456,361C455,360.333 455,358.5 454,358C453,357.5 451.167,357.667 450,358C448.844,358.33 447.667,359.167 447,360C446.342,360.823 446.833,362.667 446,363C445.167,363.333 443.118,362.799 442,362C440.833,361.167 440,359 439,358C438.15,357.15 437.193,356.149 436,356C434.667,355.833 432,357.833 431,357C430,356.167 430.833,352.333 430,351C429.21,349.736 427.333,349.167 426,349C424.667,348.833 423.374,350 422,350C420.333,350 417.5,349 416,349C414.946,349 414.023,349.744 413,350C411.667,350.333 409.667,351 408,351C406.333,351 404.333,350 403,350C401.946,350 400.745,350.255 400,351C399.167,351.833 398.509,353.599 398,355C397.333,356.833 396.5,360.167 396,362C395.638,363.326 395.972,365.028 395,366C393.5,367.5 389.167,369 387,371C384.893,372.945 383,375.5 382,378C381.002,380.495 381.117,383.315 381,386C380.833,389.833 380.5,397.167 381,401C381.368,403.824 382.667,406.667 384,409C385.292,411.26 387.667,413.333 389,415C390.041,416.301 390.667,418.5 392,419C393.333,419.5 395.333,418.333 397,418C398.667,417.667 400.422,417.631 402,417C403.667,416.333 405.333,414.833 407,414C408.606,413.197 410.833,412 412,412C412.943,412 413.216,413.477 414,414C415,414.667 416.736,415.21 418,416C419.333,416.833 421,418 422,419C422.85,419.85 423.867,420.806 424,422C424.167,423.5 423.167,426 423,428C422.834,429.993 422.515,432.06 423,434C423.5,436 425.424,437.839 426,440C426.667,442.5 427.427,446.012 427,449C426.5,452.5 424,458.167 423,461C422.403,462.693 421.223,464.219 421,466C420.667,468.667 420.833,473.667 421,477C421.151,480.015 421.667,483.5 422,486C422.268,488.01 422.333,491.333 423,492C423.667,492.667 425.012,490.684 426,490C428.167,488.5 432.689,485.365 436,483C439.5,480.5 443.635,478.039 447,475C452.167,470.333 463,459.5 467,455C468.785,452.991 471,448 471,448C471,448 469.87,444.695 470,443C470.167,440.833 471,437 472,435C472.843,433.313 474.512,432.158 476,431C477.5,429.833 479.833,428.5 481,428C481.613,427.737 483,428 483,428C483,428 484.395,425.362 485,424C485.667,422.5 486.387,420.687 487,419C487.667,417.167 488.5,414.667 489,413C489.395,411.684 490,409 490,409L486,409C485,409 483.667,409.5 483,409C482.333,408.5 482.29,407.014 482,406C481.667,404.833 481.483,403.287 481,402C480.5,400.667 479.667,399.333 479,398C478.333,396.667 477.471,395.414 477,394C476.5,392.5 476.76,390.52 476,389C475.167,387.333 472.667,385.5 472,384C471.458,382.782 472.167,381.167 472,380C471.851,378.957 471.471,377.943 471,377C470.5,376 469.667,374.667 469,374C468.473,373.473 467.167,373.667 467,373C466.833,372.333 467.5,370.667 468,370C468.447,369.404 469.255,369 470,369C470.833,369 472.057,369.529 473,370C474,370.5 475.077,371.231 476,372C477,372.833 478.333,374 479,375C479.585,375.877 479.869,376.954 480,378C480.167,379.333 480,381.5 480,383C480,384.333 479.5,386.167 480,387C480.5,387.833 482.333,387.5 483,388C483.596,388.447 483.854,389.269 484,390C484.167,390.833 483.836,392.014 484,393C484.167,394 484.71,394.986 485,396C485.333,397.167 485.333,399.167 486,400C486.658,400.823 488,400.833 489,401C489.986,401.164 492,401 492,401C492,401 492.806,398.361 493,397C493.333,394.667 493.722,390.338 494,387C494.333,383 495.097,377.678 495,373C494.833,365 493.833,346.5 493,339C492.58,335.223 491.271,331.582 490,328C488.167,322.833 485.087,314.483 482,308C478.667,301 474.667,292.833 470,286C465.333,279.167 459,272.167 454,267C449.726,262.583 440,255 440,255Z" style="fill:none;stroke:rgb(0,100,50);stroke-width:5.69px;"/>
                <path d="M405,313C404.333,312.333 405.696,309.672 406,308C406.333,306.167 407,303.833 407,302C407,300.3 406.943,298.414 406,297C405,295.5 401.333,294.167 401,293C400.667,291.833 403,290.667 404,290C404.877,289.415 406.167,288.5 407,289C407.833,289.5 408.395,291.638 409,293C409.667,294.5 410.333,296.5 411,298C411.605,299.362 412.333,300.833 413,302C413.596,303.043 414.851,303.807 415,305C415.167,306.333 414.833,308.833 414,310C413.167,311.167 411.414,311.529 410,312C408.5,312.5 405.667,313.667 405,313Z" style="fill:none;stroke:rgb(0,100,50);stroke-width:5.69px;"/>
                <path d="M401,298C401.667,298.333 402,300.626 402,302C402,303.5 401.667,305.833 401,307C400.404,308.043 399,309 398,309C397,309 395.5,308 395,307C394.5,306 394.5,304.167 395,303C395.5,301.833 397,300.833 398,300C398.923,299.231 400.333,297.667 401,298Z" style="fill:none;stroke:rgb(0,100,50);stroke-width:5.69px;"/>
                <path d="M280,245C280,245 279,246.946 279,248C279,249.167 279.167,251.333 280,252C280.833,252.667 283,252.667 284,252C285,251.333 284.833,248.833 286,248C287.167,247.167 289.403,247.581 291,247C292.833,246.333 295.192,245.315 297,244C298.833,242.667 300.667,240.667 302,239C303.214,237.482 305,234 305,234C305,234 296.167,237.167 292,239C287.907,240.801 280,245 280,245Z" style="fill:none;stroke:rgb(0,100,50);stroke-width:5.69px;"/>
                <path d="M269,257C268.5,257.833 268.5,259.167 269,260C269.5,260.833 271.333,261.167 272,262C272.658,262.823 272.333,264.5 273,265C273.667,265.5 275.051,265.316 276,265C277,264.667 278.667,263.833 279,263C279.333,262.167 278.5,260.833 278,260C277.515,259.192 276.333,258.833 276,258C275.667,257.167 276.333,255.833 276,255C275.667,254.167 274.667,253 274,253C273.333,253 272.736,254.411 272,255C271.167,255.667 269.5,256.167 269,257Z" style="fill:none;stroke:rgb(0,100,50);stroke-width:5.69px;"/>
                <path d="M294,279C293.404,278.702 293.702,277.596 294,277C294.5,276 296.167,274 297,273C297.604,272.276 298.167,271.333 299,271C299.833,270.667 301.333,271.5 302,271C302.667,270.5 303.333,269 303,268C302.667,267 300.5,266.167 300,265C299.5,263.833 300.667,262 300,261C299.333,260 297,259 296,259C295.057,259 294.784,260.477 294,261C293,261.667 291.333,262.833 290,263C288.667,263.167 287,262.833 286,262C285,261.167 283.833,259.333 284,258C284.167,256.667 286,255 287,254C287.85,253.15 288.844,252.33 290,252C291.167,251.667 292.667,252 294,252C295.333,252 297,252.5 298,252C299,251.5 299.167,249.5 300,249C300.833,248.5 302.106,248.553 303,249C304,249.5 305.5,250.833 306,252C306.5,253.167 305.333,255.167 306,256C306.667,256.833 308.833,256.667 310,257C311.014,257.29 312.529,257.057 313,258C313.5,259 312.5,261.667 313,263C313.497,264.324 315.333,264.833 316,266C316.667,267.167 317.333,268.833 317,270C316.667,271.167 315,272.667 314,273C313,273.333 311.667,271.5 311,272C310.333,272.5 310.5,274.833 310,276C309.527,277.105 308.699,278.022 308,279C307.167,280.167 306.167,282.5 305,283C303.833,283.5 302.167,282.667 301,282C299.833,281.333 299.167,279.5 298,279C296.833,278.5 294.667,279.333 294,279Z" style="fill:none;stroke:rgb(0,100,50);stroke-width:5.69px;"/>
                <path d="M310,233C310,233 310.667,235 311,236C311.5,237.5 312.167,241.167 313,242C313.745,242.745 315.123,241.585 316,241C317,240.333 317.833,238.5 319,238C320.167,237.5 321.833,237.833 323,238C324.043,238.149 325.177,238.342 326,239C326.833,239.667 327.333,241.167 328,242C328.589,242.736 329.741,243.093 330,244C330.333,245.167 330.167,247.5 330,249C329.848,250.366 328.833,252.333 329,253C329.162,253.647 330.333,253 331,253C331.833,253 333.667,252.5 334,253C334.333,253.5 333.667,255.333 333,256C332.333,256.667 330.333,256.5 330,257C329.667,257.5 330.723,258.308 331,259C331.333,259.833 332.149,260.957 332,262C331.833,263.167 330.667,264.833 330,266C329.404,267.043 328.167,267.833 328,269C327.833,270.167 328.667,271.667 329,273C329.333,274.333 329.385,275.771 330,277C330.667,278.333 331.902,279.746 333,281C334.167,282.333 335.667,284.167 337,285C338.165,285.728 339.667,286.333 341,286C342.333,285.667 344.075,284.387 345,283C346,281.5 346.5,278.833 347,277C347.447,275.36 347.5,273.167 348,272C348.371,271.133 349.167,270.333 350,270C350.833,269.667 352.01,270.141 353,270C354.167,269.833 356.167,269.667 357,269C357.823,268.342 357.415,266.877 358,266C358.667,265 359.801,263.75 361,263C362.333,262.167 364.333,261.5 366,261C367.628,260.512 369.333,260.167 371,260C372.658,259.834 374.833,260.333 376,260C376.907,259.741 377.833,258.667 378,258C378.167,257.333 377.596,256.447 377,256C376.333,255.5 375.043,255.149 374,255C372.833,254.833 371,255.333 370,255C369.106,254.702 368.298,253.894 368,253C367.667,252 367.333,249.667 368,249C368.667,248.333 370.675,249.147 372,249C373.5,248.833 375.667,248.667 377,248C378.265,247.368 379.503,246.324 380,245C380.5,243.667 380,241.667 380,240C380,238.333 380.5,236 380,235C379.529,234.057 377.5,234.667 377,234C376.5,233.333 377,232 377,231L377,228C377,228 364.36,226.326 358,226C351.5,225.667 344.167,225.5 338,226C332.265,226.465 325.667,227.833 321,229C317.215,229.946 310,233 310,233Z" style="fill:none;stroke:rgb(0,100,50);stroke-width:5.69px;"/>
                <path d="M248,269C248,269 249.216,270.477 250,271C251,271.667 252.509,273 254,273C255.5,273 258,271.667 259,271C259.62,270.587 260,269 260,269C260,269 261.342,269.11 262,269C263,268.833 265.5,268.667 266,268C266.5,267.333 265.5,265.833 265,265C264.515,264.192 263.333,263.833 263,263C262.667,262.167 263,261 263,260L263,256C263,256 257.5,259.833 255,262C252.506,264.161 248,269 248,269Z" style="fill:none;stroke:rgb(0,100,50);stroke-width:5.69px;"/>
                <path d="M208,362L210,362C210.833,362 212.333,361.667 213,362C213.667,362.333 213.877,363.265 214,364C214.167,365 213.761,366.688 214,368C214.333,369.833 215.333,373.5 216,375C216.383,375.862 217.167,376.833 218,377C218.833,377.167 220.667,376.833 221,376C221.333,375.167 220.333,373.333 220,372C219.667,370.667 218.833,369.167 219,368C219.167,366.833 220.167,365.167 221,365C221.833,364.833 223.301,366.022 224,367C224.833,368.167 225.528,370.268 226,372C226.5,373.833 226.856,375.978 227,378C227.167,380.333 226.667,384 227,386C227.245,387.47 227.807,389.106 229,390C230.333,391 233,391.667 235,392C236.973,392.329 239.006,391.847 241,392C243.167,392.167 246,392.333 248,393C249.844,393.615 251.5,394.833 253,396C254.488,397.158 255.747,398.591 257,400C258.333,401.5 260.167,403.833 261,405C261.433,405.607 261.404,406.553 262,407C262.667,407.5 264,408 265,408C266,408 267,406.833 268,407C269,407.167 270.333,408 271,409C271.667,410 272,411.626 272,413C272,414.5 271.76,416.48 271,418C270.167,419.667 267.821,421.03 267,423C266.167,425 265.5,428 266,430C266.5,432 268.745,433.274 270,435C271.333,436.833 272.833,439.167 274,441C275.043,442.64 275.709,444.547 277,446C278.333,447.5 280.414,448.572 282,450C283.667,451.5 285.883,452.925 287,455C288.167,457.167 288.712,460.266 289,463C289.333,466.167 289.167,470.5 289,474C288.841,477.346 288.167,481.167 288,484C287.863,486.329 288,489.5 288,491L288,495C288,495 291.5,497.167 293,498C294.303,498.724 295.616,499.446 297,500C298.667,500.667 303,502 303,502C303,502 302.89,500.658 303,500C303.167,499 303.667,497 304,496C304.236,495.293 304.333,494.333 305,494C305.667,493.667 307.167,494.167 308,494C308.731,493.854 309.5,493.5 310,493C310.5,492.5 311,491.667 311,491C311,490.333 310.333,489.5 310,489C309.739,488.608 309.149,488.447 309,488C308.833,487.5 308.667,486.5 309,486C309.333,485.5 310.333,485 311,485C311.667,485 312.333,485.667 313,486C313.667,486.333 314.333,486.667 315,487C315.667,487.333 316.5,487.833 317,488C317.316,488.105 317.833,488.167 318,488C318.167,487.833 317.945,487.329 318,487C318.167,486 318.5,483.333 319,482C319.422,480.875 320.527,480.105 321,479C321.5,477.833 321.667,476 322,475C322.236,474.293 322.404,473.447 323,473C323.667,472.5 324.957,472.149 326,472C327.167,471.833 328.833,472.333 330,472C331.156,471.67 332.087,470.782 333,470C334.167,469 336,467.5 337,466C337.996,464.506 338.667,462.667 339,461C339.327,459.366 339,457.333 339,456C339,455 338.667,453.833 339,453C339.333,452.167 340.333,451.667 341,451C341.833,450.167 343.333,449.167 344,448C344.667,446.833 344.863,445.368 345,444C345.167,442.333 345.5,439.5 345,438C344.553,436.658 343.131,435.849 342,435C340.667,434 338.667,432.833 337,432C335.394,431.197 333.703,430.568 332,430C330,429.333 327.167,428.667 325,428C322.985,427.38 320.167,426.5 319,426C318.567,425.814 318,425.471 318,425C318,424.5 318.667,423.667 319,423C319.333,422.333 320,421.745 320,421C320,420.167 319.585,418.877 319,418C318.333,417 317.199,415.75 316,415C314.667,414.167 312.667,413.667 311,413C309.333,412.333 307.333,411.667 306,411C304.925,410.463 303.5,409.833 303,409C302.5,408.167 303.167,406.833 303,406C302.854,405.269 302.692,404.277 302,404C301.167,403.667 299.333,404 298,404C296.667,404 295.167,404.167 294,404C292.957,403.851 291.877,403.585 291,403C290,402.333 289,400.5 288,400C287.106,399.553 285.949,399.684 285,400C284,400.333 282.913,401.218 282,402C280.833,403 279,405 278,406C277.333,406.667 276.667,407.833 276,408C275.333,408.167 274.447,407.596 274,407C273.5,406.333 273.5,404.833 273,404C272.515,403.192 271.894,402.298 271,402C270,401.667 268,402 267,402C266.333,402 265.5,402.333 265,402C264.5,401.667 264,400.745 264,400C264,398.833 265,396.333 265,395C265,393.946 264.5,392.833 264,392C263.515,391.192 262.833,390.333 262,390C261.167,389.667 259.667,390.333 259,390C258.333,389.667 257.833,388.667 258,388C258.167,387.333 259.667,386.833 260,386C260.333,385.167 260.333,383.833 260,383C259.667,382.167 258.833,381.333 258,381C257.167,380.667 255.894,380.553 255,381C254,381.5 252.833,383.167 252,384C251.333,384.667 250.808,385.515 250,386C249.167,386.5 248,387 247,387C246,387 244.833,386.5 244,386C243.192,385.515 242.167,384.833 242,384C241.833,383.167 242.851,382.043 243,381C243.167,379.833 243.167,378.167 243,377C242.851,375.957 242,375.054 242,374C242,372.833 242.333,371.167 243,370C243.667,368.833 244.833,367.667 246,367C247.167,366.333 248.634,366.152 250,366C251.5,365.833 253.342,365.834 255,366C256.667,366.167 258.372,366.512 260,367C261.667,367.5 263.833,368.167 265,369C265.978,369.699 266.5,371 267,372C267.471,372.943 267.333,374.5 268,375C268.667,375.5 270.333,375.667 271,375C271.667,374.333 271.833,372.333 272,371C272.165,369.677 271.867,368.327 272,367C272.167,365.333 272.5,362.667 273,361C273.428,359.572 274.167,358.167 275,357C275.822,355.849 277,354.667 278,354C278.877,353.415 280.5,353.667 281,353C281.5,352.333 281.164,350.986 281,350C280.833,349 280.149,348.043 280,347C279.833,345.833 279.833,343.667 280,343C280.081,342.677 280.667,343 281,343C282,343 284.5,343.333 286,343C287.455,342.677 288.807,341.894 290,341C291.333,340 293,338.333 294,337C294.894,335.807 295.5,334.167 296,333C296.415,332.031 296.667,330.333 297,330C297.333,329.667 297.562,330.825 298,331C298.833,331.333 300.667,332.167 302,332C303.333,331.833 304.638,330.605 306,330C307.5,329.333 310,328.5 311,328C311.422,327.789 311.851,327.447 312,327C312.167,326.5 312.333,325.333 312,325C311.667,324.667 310.667,325 310,325C309.167,325 307.833,325.333 307,325C306.167,324.667 305.333,323.833 305,323C304.667,322.167 305.333,320.833 305,320C304.667,319.167 303.333,318.5 303,318C302.815,317.723 302.702,317.149 303,317C303.667,316.667 305.632,316.137 307,316C308.667,315.833 311.333,315.833 313,316C314.368,316.137 316,316.333 317,317C318,317.667 318.333,319.333 319,320C319.527,320.527 320.255,321 321,321C321.833,321 323.5,320.667 324,320C324.5,319.333 324.316,317.949 324,317C323.667,316 322.667,314.833 322,314C321.411,313.264 320.167,312.833 320,312C319.833,311.167 320.833,310 321,309C321.164,308.014 321.164,306.986 321,306C320.833,305 320.37,303.987 320,303C319.5,301.667 318.667,299.333 318,298C317.463,296.925 316.699,295.978 316,295C315.167,293.833 313.833,291.667 313,291C312.479,290.584 311.596,290.702 311,291C310.333,291.333 309.667,292.667 309,293C308.404,293.298 307.533,293.4 307,293C306.333,292.5 305.667,291 305,290C304.333,289 304,287.667 303,287C302,286.333 300.333,286 299,286C297.667,286 296,286.167 295,287C294,287.833 293.428,289.572 293,291C292.5,292.667 292.492,295.033 292,297C291.5,299 291,301.5 290,303C289.075,304.387 286.833,304.667 286,306C285.167,307.333 285.5,309.5 285,311C284.529,312.414 283.833,314.5 283,315C282.167,315.5 280.658,314.823 280,314C279.333,313.167 279.152,311.366 279,310C278.833,308.5 279.333,306.167 279,305C278.741,304.093 277.808,303.485 277,303C276.167,302.5 275.014,302.29 274,302C272.833,301.667 271.167,301.5 270,301C268.895,300.527 267.5,299.833 267,299C266.5,298.167 266.725,296.962 267,296C267.333,294.833 268.21,293.264 269,292C269.833,290.667 271,289.333 272,288C273,286.667 274,285.333 275,284C276,282.667 277,281 278,280C278.85,279.15 280,278.333 281,278C281.949,277.684 283.051,278.316 284,278C285,277.667 286.167,276.833 287,276C287.833,275.167 288.833,274 289,273C289.167,272 288.667,270.5 288,270C287.333,269.5 285.962,269.725 285,270C283.833,270.333 282,272 281,272C280.057,272 279.833,270.333 279,270C278.167,269.667 276.949,269.684 276,270C275,270.333 274.043,271.404 273,272C271.833,272.667 270.428,273.572 269,274C267.333,274.5 264.5,274.5 263,275C261.86,275.38 261.105,276.527 260,277C258.833,277.5 257.368,277.863 256,278C254.333,278.167 251.667,278.167 250,278C248.632,277.863 247,277.333 246,277C245.293,276.764 244.5,276.333 244,276C243.608,275.739 243,275 243,275C243,275 241.614,276.284 241,277C239,279.333 234,284.833 231,289C228.027,293.129 225.387,297.507 223,302C220.167,307.333 216.333,314.5 214,321C211.678,327.468 210,334.667 209,341C208.063,346.936 208.167,355.5 208,359C207.952,359.999 208,362 208,362Z" style="fill:none;stroke:rgb(0,100,50);stroke-width:5.69px;"/>
            </g>
        </g>
        <g transform="matrix(0.995061,-0.0992644,0.0992644,0.995061,-12.8062,23.4747)">
            <path d="M180.298,138.015C191.998,136.08 215.399,132.211 232.975,133.496C250.968,134.812 275.825,142.209 288.253,145.908" style="fill:none;stroke:rgb(160,160,160);stroke-width:2.5px;"/>
        </g>
        <g transform="matrix(-0.00601238,0.0857687,-0.0857687,-0.00601238,281.157,115.18)">
            <path d="M245,490C242.5,467.5 238.333,410 240,390C240.692,381.695 250,370 255,370C260,370 269.308,381.695 270,390C271.667,410 267.5,467.5 265,490C263.66,502.059 258.333,525 255,525C251.667,525 246.34,502.059 245,490Z" style="fill:none;stroke:black;stroke-width:29.08px;"/>
            <g transform="matrix(-0.0109301,-0.312996,1.20527,-0.0420891,-332.45,492.828)">
                <path d="M107,408L190,476L107,476L107,408Z" style="fill:none;stroke:black;stroke-width:33px;"/>
            </g>
            <g transform="matrix(0.0109301,-0.312996,-1.20527,-0.0420891,841.765,492.828)">
                <path d="M107,408L190,476L107,476L107,408Z" style="fill:none;stroke:black;stroke-width:33px;"/>
            </g>
            <g transform="matrix(0.984808,-0.173648,0.134183,0.760988,-38.977,163.582)">
                <path d="M222,496L222,518L180,518L222,496Z" style="fill:none;stroke:black;stroke-width:32.54px;"/>
            </g>
            <g transform="matrix(-0.984808,-0.173648,-0.134183,0.760988,547.977,163.582)">
                <path d="M222,496L222,518L180,518L222,496Z" style="fill:none;stroke:black;stroke-width:32.54px;"/>
            </g>
        </g>
    </g>
</svg>
